<svg width="53" height="51" viewBox="0 0 53 51" fill="none" xmlns="http://www.w3.org/2000/svg">
<path d="M11.8635 51H0.875446V16.9499H11.8635V51ZM6.36355 12.3052C2.84993 12.3052 0 9.50465 0 6.12355C2.5149e-08 4.49948 0.670444 2.94194 1.86384 1.79355C3.05724 0.645158 4.67583 0 6.36355 0C8.05127 0 9.66986 0.645158 10.8633 1.79355C12.0567 2.94194 12.7271 4.49948 12.7271 6.12355C12.7271 9.50465 9.87598 12.3052 6.36355 12.3052ZM52.9882 51H42.0238V34.4246C42.0238 30.4743 41.941 25.4084 36.3109 25.4084C30.598 25.4084 29.7226 29.7002 29.7226 34.14V51H18.7464V16.9499H29.2849V21.5947H29.4387C30.9056 18.9194 34.489 16.0961 39.8352 16.0961C50.9557 16.0961 53 23.1429 53 32.2958V51H52.9882Z" fill="url(#paint0_linear_1_56)"/>
<defs>
<linearGradient id="paint0_linear_1_56" x1="53" y1="-8.49999" x2="-20.3348" y2="15.7706" gradientUnits="userSpaceOnUse">
<stop stop-color="#F1B8D2" stop-opacity="0.74"/>
<stop offset="1" stop-color="#95BBE9" stop-opacity="0.79"/>
</linearGradient>
</defs>
</svg>
