<svg width="54" height="54" viewBox="0 0 54 54" fill="none" xmlns="http://www.w3.org/2000/svg">
<path fill-rule="evenodd" clip-rule="evenodd" d="M39.3723 32.3595C38.6986 32.0243 35.3955 30.4088 34.7806 30.1838C34.1656 29.961 33.718 29.8508 33.2681 30.5213C32.8204 31.1873 31.534 32.6948 31.1429 33.1403C30.7495 33.588 30.3584 33.642 29.6869 33.309C29.0155 32.9715 26.8496 32.2673 24.2836 29.9903C22.2872 28.2173 20.9375 26.028 20.5464 25.3575C20.1553 24.6893 20.5034 24.327 20.8403 23.9941C21.1433 23.6948 21.5118 23.2133 21.8486 22.8241C22.1855 22.4326 22.2963 22.1536 22.5201 21.7058C22.7462 21.2603 22.6331 20.8711 22.4636 20.5358C22.2963 20.2006 20.9534 16.9088 20.3927 15.5701C19.8478 14.2673 19.2939 14.4451 18.8824 14.4226C18.489 14.4046 18.0414 14.4001 17.5938 14.4001C17.1461 14.4001 16.4181 14.5666 15.8032 15.2371C15.186 15.9053 13.4519 17.5231 13.4519 20.8148C13.4519 24.1043 15.8574 27.2835 16.1943 27.7313C16.5312 28.1768 20.9307 34.9313 27.6703 37.827C29.2755 38.5155 30.5257 38.9273 31.5001 39.2333C33.1098 39.744 34.5748 39.672 35.7324 39.4988C37.0211 39.3075 39.7069 37.881 40.2676 36.3195C40.826 34.758 40.826 33.4193 40.6587 33.1403C40.4914 32.8613 40.0438 32.6948 39.3701 32.3595H39.3723ZM27.1141 49.0163H27.1051C23.1021 49.017 19.1727 47.9461 15.7286 45.9158L14.9147 45.4343L6.45466 47.6438L8.71323 39.4358L8.18194 38.5943C5.94403 35.0491 4.75971 30.946 4.76583 26.7593C4.77035 14.4968 14.7949 4.52033 27.1231 4.52033C33.0917 4.52033 38.7031 6.83783 42.9218 11.0408C45.0026 13.1031 46.6519 15.5556 47.7742 18.2563C48.8965 20.9571 49.4695 23.8525 49.4601 26.775C49.4556 39.0375 39.4311 49.0163 27.1141 49.0163ZM46.1322 7.84808C43.6412 5.35266 40.6773 3.37404 37.4124 2.02689C34.1474 0.679735 30.6463 -0.00917154 27.1118 9.21993e-05C12.2944 9.21993e-05 0.230604 12.0038 0.226083 26.757C0.219217 31.4522 1.45682 36.0662 3.81402 40.1333L0 54L14.2523 50.2785C18.1949 52.4163 22.613 53.5364 27.1028 53.5365H27.1141C41.9316 53.5365 53.9953 41.5328 53.9999 26.7773C54.0108 23.2612 53.3211 19.7778 51.9706 16.5286C50.6202 13.2795 48.6357 10.3291 46.1322 7.84808Z" fill="url(#paint0_linear_1_55)"/>
<defs>
<linearGradient id="paint0_linear_1_55" x1="54" y1="-8.99999" x2="-21.2687" y2="14.9706" gradientUnits="userSpaceOnUse">
<stop stop-color="#F1B8D2" stop-opacity="0.74"/>
<stop offset="1" stop-color="#95BBE9" stop-opacity="0.79"/>
</linearGradient>
</defs>
</svg>
